<svg xmlns="http://www.w3.org/2000/svg" width="1200" height="630" viewBox="0 0 1200 630" role="img" aria-label="Thai Tone Visualizer social preview">
  <defs>
    <linearGradient id="sky" x1="0" x2="1" y1="0" y2="1">
      <stop offset="0" stop-color="#e8f7f5"/>
      <stop offset="1" stop-color="#f7f9fb"/>
    </linearGradient>
    <filter id="shadow" x="-20%" y="-20%" width="140%" height="140%">
      <feDropShadow dx="0" dy="18" stdDeviation="18" flood-color="#0f172a" flood-opacity="0.16"/>
    </filter>
  </defs>
  <rect width="1200" height="630" fill="url(#sky)"/>
  <rect x="72" y="70" width="1056" height="490" rx="28" fill="#ffffff" filter="url(#shadow)"/>
  <rect x="72" y="70" width="1056" height="490" rx="28" fill="none" stroke="#d7dee8" stroke-width="2"/>
  <g transform="translate(112 112)">
    <rect width="86" height="86" rx="18" fill="#17212b"/>
    <circle cx="43" cy="43" r="32" fill="#ffffff"/>
    <path d="M22 49 C29 30 37 28 42 39 C47 51 57 47 63 32" fill="none" stroke="#0f766e" stroke-width="8" stroke-linecap="round"/>
    <path d="M22 36 C31 52 44 54 62 45" fill="none" stroke="#b423b6" stroke-width="8" stroke-linecap="round"/>
  </g>
  <text x="224" y="156" fill="#172033" font-family="Inter, Arial, sans-serif" font-size="68" font-weight="900">Thai Tone Visualizer</text>
  <text x="226" y="216" fill="#40556b" font-family="Inter, Arial, sans-serif" font-size="31" font-weight="700">Practice Thai tones with target audio and pitch contours.</text>
  <g transform="translate(138 286)">
    <rect width="924" height="190" rx="18" fill="#f8fafc" stroke="#d7dee8" stroke-width="2"/>
    <line x1="58" y1="142" x2="866" y2="142" stroke="#d7dee8" stroke-width="3"/>
    <line x1="58" y1="46" x2="58" y2="142" stroke="#d7dee8" stroke-width="3"/>
    <path d="M76 70 C172 70 196 70 272 70 C350 70 380 120 446 132 C530 148 600 86 676 68 C748 52 814 58 850 58" fill="none" stroke="#102a43" stroke-width="12" stroke-linecap="round"/>
    <path d="M76 112 C162 138 218 132 280 110 C356 84 410 92 476 114 C548 138 606 142 672 112 C746 78 804 54 850 50" fill="none" stroke="#b423b6" stroke-width="12" stroke-linecap="round"/>
    <g font-family="Inter, Arial, sans-serif" font-size="22" font-weight="800">
      <rect x="96" y="24" width="116" height="42" rx="8" fill="#e5f0ff"/>
      <text x="154" y="53" text-anchor="middle" fill="#2563eb">low</text>
      <rect x="242" y="24" width="116" height="42" rx="8" fill="#edf8ed"/>
      <text x="300" y="53" text-anchor="middle" fill="#0f766e">mid</text>
      <rect x="388" y="24" width="116" height="42" rx="8" fill="#fff2cf"/>
      <text x="446" y="53" text-anchor="middle" fill="#b45309">high</text>
      <rect x="534" y="24" width="132" height="42" rx="8" fill="#fee2e2"/>
      <text x="600" y="53" text-anchor="middle" fill="#dc2626">falling</text>
      <rect x="698" y="24" width="132" height="42" rx="8" fill="#ede9fe"/>
      <text x="764" y="53" text-anchor="middle" fill="#7c3aed">rising</text>
    </g>
  </g>
  <text x="138" y="525" fill="#64748b" font-family="Inter, Arial, sans-serif" font-size="25" font-weight="750">Local microphone analysis. No uploads from the app.</text>
</svg>
